<svg width="180" height="118" viewBox="0 0 180 118" fill="none" xmlns="http://www.w3.org/2000/svg">
<path d="M92.7088 55.8818H84.5943L80.3597 75.3574H89.1004C95.3895 75.3574 97.2562 71.8951 97.2783 69.1631C97.2975 66.7828 95.9463 65.809 94.6706 65.3897L94.7123 65.1733C96.5009 64.7811 98.6713 63.3204 98.6955 60.3179C98.7189 57.4237 96.4796 55.8818 92.7088 55.8818ZM86.1213 71.3812L86.9786 67.5131H90.4296C91.7487 67.5131 92.5305 68.0541 92.5214 69.1766C92.512 70.3398 91.6242 71.3812 89.7588 71.3812H86.1213ZM87.8369 63.5368L88.6394 59.8581H91.8239C93.143 59.8581 93.8718 60.3585 93.8632 61.427C93.8542 62.536 93.02 63.5368 91.1146 63.5368H87.8369Z" fill="white"/>
<path d="M101.227 55.8818L96.9926 75.3574H110.946L111.873 71.1377H102.983L106.29 55.8818H101.227Z" fill="white"/>
<path d="M120.791 55.8818L111.244 74.9517L111.16 75.3574H115.97L117.842 71.3H123.532L123.645 75.3574H128.255L128.339 74.9517L127.08 55.8818H120.791ZM119.74 67.2155L123.022 60.1151H123.235L123.418 67.2155H119.74Z" fill="white"/>
<path d="M137.917 55.8818H132.441L128.206 75.3574H134.948C143.436 75.3574 146.219 69.0279 146.262 63.618C146.303 58.6003 143.007 55.8818 137.917 55.8818ZM134.089 71.2459L136.512 59.9933H137.724C140.069 59.9933 141.404 61.2917 141.384 63.7667C141.355 67.3778 139.539 71.2459 135.648 71.2459H134.089Z" fill="white"/>
<path d="M149.074 55.8818L144.839 75.3574H159.363L160.221 71.3812H150.654L151.498 67.5401H159.546L160.404 63.5639H152.369L153.172 59.8581H162.553L163.411 55.8818H149.074Z" fill="white"/>
<path d="M100.517 33.3398L99.6176 37.5055H105.134L101.799 52.8154H106.809L110.144 37.5055H115.66L116.56 33.3398H100.517Z" fill="white"/>
<path d="M125.052 33.3398H117.177L112.942 52.8154H117.846L119.506 45.1604H119.773L123.722 52.8154H128.692L128.775 52.4097L124.796 45.1875C129.649 44.7817 131.444 41.9821 131.471 38.5874C131.499 35.2333 129.022 33.3398 125.052 33.3398ZM120.281 41.5899L121.222 37.3161H124.353C125.872 37.3161 126.733 37.9247 126.724 39.1149C126.714 40.3592 125.824 41.5899 123.612 41.5899H120.281Z" fill="white"/>
<path d="M137.381 33.3398L127.833 52.4097L127.75 52.8154H132.56L134.431 48.758H140.121L140.235 52.8154H144.845L144.928 52.4097L143.67 33.3398H137.381ZM136.33 44.6736L139.612 37.5731H139.825L140.007 44.6736H136.33Z" fill="white"/>
<path d="M154.507 33.3398H149.03L144.796 52.8154H151.538C160.025 52.8154 162.808 46.4859 162.852 41.076C162.892 36.0583 159.596 33.3398 154.507 33.3398ZM150.678 48.7039L153.101 37.4514H154.313C156.658 37.4514 157.994 38.7497 157.974 41.2247C157.945 44.8358 156.128 48.7039 152.237 48.7039H150.678Z" fill="white"/>
<path d="M165.663 33.3398L161.429 52.8154H175.952L176.81 48.8392H167.243L168.087 44.9981H176.135L176.993 41.0219H168.959L169.762 37.3161H179.142L180 33.3398H165.663Z" fill="white"/>
<path d="M46.7143 75.4105L15 20.6609L30.753 33.3025L50.8892 68.1794L46.7143 75.4105Z" fill="#5E47FF"/>
<path d="M76.4848 42.2625L44.9274 97.1027L47.9988 77.1394L68.135 42.2625L76.4848 42.2625Z" fill="#5E47FF"/>
<path d="M33.077 33.4013L96.3487 33.3106L77.5243 40.6323H37.2519L33.077 33.4013Z" fill="#5E47FF"/>
<path d="M46.7143 75.4105L15 20.6609L30.753 33.3025L50.8892 68.1794L46.7143 75.4105Z" fill="#5E47FF"/>
<path d="M76.4848 42.2625L44.9274 97.1027L47.9988 77.1394L68.135 42.2625L76.4848 42.2625Z" fill="#5E47FF"/>
<g filter="url(#filter0_f_185_459)">
<path d="M33.077 33.4013L96.3487 33.3106L77.5243 40.6323H37.2519L33.077 33.4013Z" fill="#5E47FF"/>
</g>
<path d="M52.027 64.0464L63.9552 43.3862H40.0988L52.027 64.0464Z" fill="#57E1FF"/>
<g filter="url(#filter1_f_185_459)">
<path d="M46.7143 75.4105L15 20.6609L30.753 33.3025L50.8892 68.1794L46.7143 75.4105Z" fill="#5E47FF"/>
</g>
<g filter="url(#filter2_f_185_459)">
<path d="M76.4848 42.2625L44.9274 97.1027L47.9988 77.1394L68.135 42.2625L76.4848 42.2625Z" fill="#5E47FF"/>
</g>
<path d="M33.077 33.4013L96.3487 33.3106L77.5243 40.6323H37.2519L33.077 33.4013Z" fill="#5E47FF"/>
<defs>
<filter id="filter0_f_185_459" x="13.077" y="13.3105" width="103.272" height="47.3218" filterUnits="userSpaceOnUse" color-interpolation-filters="sRGB">
<feFlood flood-opacity="0" result="BackgroundImageFix"/>
<feBlend mode="normal" in="SourceGraphic" in2="BackgroundImageFix" result="shape"/>
<feGaussianBlur stdDeviation="10" result="effect1_foregroundBlur_185_459"/>
</filter>
<filter id="filter1_f_185_459" x="-5" y="0.661133" width="75.8892" height="94.7495" filterUnits="userSpaceOnUse" color-interpolation-filters="sRGB">
<feFlood flood-opacity="0" result="BackgroundImageFix"/>
<feBlend mode="normal" in="SourceGraphic" in2="BackgroundImageFix" result="shape"/>
<feGaussianBlur stdDeviation="10" result="effect1_foregroundBlur_185_459"/>
</filter>
<filter id="filter2_f_185_459" x="24.9274" y="22.2627" width="71.5574" height="94.8398" filterUnits="userSpaceOnUse" color-interpolation-filters="sRGB">
<feFlood flood-opacity="0" result="BackgroundImageFix"/>
<feBlend mode="normal" in="SourceGraphic" in2="BackgroundImageFix" result="shape"/>
<feGaussianBlur stdDeviation="10" result="effect1_foregroundBlur_185_459"/>
</filter>
</defs>
</svg>
