<svg width="185" height="118" viewBox="0 0 185 118" fill="none" xmlns="http://www.w3.org/2000/svg">
<path d="M97.7088 55.8818H89.5943L85.3597 75.3574H94.1004C100.389 75.3574 102.256 71.8951 102.278 69.1631C102.298 66.7828 100.946 65.809 99.6706 65.3897L99.7123 65.1733C101.501 64.7811 103.671 63.3204 103.696 60.3179C103.719 57.4237 101.48 55.8818 97.7088 55.8818ZM91.1213 71.3812L91.9786 67.5131H95.4296C96.7487 67.5131 97.5305 68.0541 97.5214 69.1766C97.512 70.3398 96.6242 71.3812 94.7588 71.3812H91.1213ZM92.8369 63.5368L93.6394 59.8581H96.8239C98.143 59.8581 98.8718 60.3585 98.8632 61.427C98.8542 62.536 98.02 63.5368 96.1146 63.5368H92.8369Z" fill="white"/>
<path d="M106.227 55.8818L101.993 75.3574H115.946L116.873 71.1377H107.983L111.29 55.8818H106.227Z" fill="white"/>
<path d="M125.791 55.8818L116.244 74.9517L116.16 75.3574H120.97L122.842 71.3H128.532L128.645 75.3574H133.255L133.339 74.9517L132.08 55.8818H125.791ZM124.74 67.2155L128.022 60.1151H128.235L128.418 67.2155H124.74Z" fill="white"/>
<path d="M142.917 55.8818H137.441L133.206 75.3574H139.948C148.436 75.3574 151.219 69.0279 151.262 63.618C151.303 58.6003 148.007 55.8818 142.917 55.8818ZM139.089 71.2459L141.512 59.9933H142.724C145.069 59.9933 146.404 61.2917 146.384 63.7667C146.355 67.3778 144.539 71.2459 140.648 71.2459H139.089Z" fill="white"/>
<path d="M154.074 55.8818L149.839 75.3574H164.363L165.221 71.3812H155.654L156.498 67.5401H164.546L165.404 63.5639H157.369L158.172 59.8581H167.553L168.411 55.8818H154.074Z" fill="white"/>
<path d="M105.517 33.3398L104.618 37.5055H110.134L106.799 52.8154H111.809L115.144 37.5055H120.66L121.56 33.3398H105.517Z" fill="white"/>
<path d="M130.052 33.3398H122.177L117.942 52.8154H122.846L124.506 45.1604H124.773L128.722 52.8154H133.692L133.775 52.4097L129.796 45.1875C134.649 44.7817 136.444 41.9821 136.471 38.5874C136.499 35.2333 134.022 33.3398 130.052 33.3398ZM125.281 41.5899L126.222 37.3161H129.353C130.872 37.3161 131.733 37.9247 131.724 39.1149C131.714 40.3592 130.824 41.5899 128.612 41.5899H125.281Z" fill="white"/>
<path d="M142.381 33.3398L132.833 52.4097L132.75 52.8154H137.56L139.431 48.758H145.121L145.235 52.8154H149.845L149.928 52.4097L148.67 33.3398H142.381ZM141.33 44.6736L144.612 37.5731H144.825L145.007 44.6736H141.33Z" fill="white"/>
<path d="M159.507 33.3398H154.03L149.796 52.8154H156.538C165.025 52.8154 167.808 46.4859 167.852 41.076C167.892 36.0583 164.596 33.3398 159.507 33.3398ZM155.678 48.7039L158.101 37.4514H159.313C161.659 37.4514 162.994 38.7497 162.974 41.2247C162.945 44.8358 161.128 48.7039 157.237 48.7039H155.678Z" fill="white"/>
<path d="M170.663 33.3398L166.429 52.8154H180.952L181.81 48.8392H172.243L173.087 44.9981H181.135L181.993 41.0219H173.959L174.762 37.3161H184.142L185 33.3398H170.663Z" fill="white"/>
<path d="M51.7143 75.4102L20 20.6607L35.753 33.3022L55.8892 68.1791L51.7143 75.4102Z" fill="#5E47FF"/>
<path d="M81.4848 42.2628L49.9274 97.1029L52.9988 77.1397L73.135 42.2628L81.4848 42.2628Z" fill="#5E47FF"/>
<path d="M38.077 33.401L101.349 33.3104L82.5243 40.6321H42.2519L38.077 33.401Z" fill="#5E47FF"/>
<path d="M51.7143 75.4102L20 20.6607L35.753 33.3022L55.8892 68.1791L51.7143 75.4102Z" fill="#5E47FF"/>
<path d="M81.4848 42.2628L49.9274 97.1029L52.9988 77.1397L73.135 42.2628L81.4848 42.2628Z" fill="#5E47FF"/>
<g filter="url(#filter0_f_137_9697)">
<path d="M38.077 33.401L101.349 33.3104L82.5243 40.6321H42.2519L38.077 33.401Z" fill="#5E47FF"/>
</g>
<path d="M57.027 64.0466L68.9552 43.3864H45.0988L57.027 64.0466Z" fill="#57E1FF"/>
<g filter="url(#filter1_f_137_9697)">
<path d="M51.7143 75.4102L20 20.6607L35.753 33.3022L55.8892 68.1791L51.7143 75.4102Z" fill="#5E47FF"/>
</g>
<g filter="url(#filter2_f_137_9697)">
<path d="M81.4848 42.2628L49.9274 97.1029L52.9988 77.1397L73.135 42.2628L81.4848 42.2628Z" fill="#5E47FF"/>
</g>
<path d="M38.077 33.401L101.349 33.3104L82.5243 40.6321H42.2519L38.077 33.401Z" fill="#5E47FF"/>
<defs>
<filter id="filter0_f_137_9697" x="18.077" y="13.3103" width="103.272" height="47.3218" filterUnits="userSpaceOnUse" color-interpolation-filters="sRGB">
<feFlood flood-opacity="0" result="BackgroundImageFix"/>
<feBlend mode="normal" in="SourceGraphic" in2="BackgroundImageFix" result="shape"/>
<feGaussianBlur stdDeviation="10" result="effect1_foregroundBlur_137_9697"/>
</filter>
<filter id="filter1_f_137_9697" x="0" y="0.660645" width="75.8892" height="94.7495" filterUnits="userSpaceOnUse" color-interpolation-filters="sRGB">
<feFlood flood-opacity="0" result="BackgroundImageFix"/>
<feBlend mode="normal" in="SourceGraphic" in2="BackgroundImageFix" result="shape"/>
<feGaussianBlur stdDeviation="10" result="effect1_foregroundBlur_137_9697"/>
</filter>
<filter id="filter2_f_137_9697" x="29.9274" y="22.2627" width="71.5574" height="94.8403" filterUnits="userSpaceOnUse" color-interpolation-filters="sRGB">
<feFlood flood-opacity="0" result="BackgroundImageFix"/>
<feBlend mode="normal" in="SourceGraphic" in2="BackgroundImageFix" result="shape"/>
<feGaussianBlur stdDeviation="10" result="effect1_foregroundBlur_137_9697"/>
</filter>
</defs>
</svg>
