<svg width="118" height="52" viewBox="0 0 118 52" fill="none" xmlns="http://www.w3.org/2000/svg">
<path d="M60.4458 25.2407H55.1782L52.4292 37.8835H58.1033C62.1859 37.8835 63.3977 35.6359 63.4121 33.8624C63.4246 32.3171 62.5474 31.685 61.7193 31.4128L61.7463 31.2724C62.9074 31.0178 64.3163 30.0696 64.3321 28.1205C64.3473 26.2416 62.8936 25.2407 60.4458 25.2407ZM56.1694 35.3022L56.726 32.7913H58.9662C59.8225 32.7913 60.33 33.1424 60.3241 33.8712C60.318 34.6262 59.7417 35.3022 58.5307 35.3022H56.1694ZM57.2831 30.21L57.8041 27.822H59.8713C60.7276 27.822 61.2007 28.1468 61.1951 28.8404C61.1893 29.5603 60.6478 30.21 59.4109 30.21H57.2831Z" fill="white"/>
<path d="M65.9755 25.2407L63.2266 37.8835H72.2846L72.8863 35.1442H67.1151L69.2624 25.2407H65.9755Z" fill="white"/>
<path d="M78.6758 25.2407L72.4778 37.6201L72.4238 37.8835H75.5463L76.7612 35.2496H80.4546L80.5285 37.8835H83.5212L83.5752 37.6201L82.7584 25.2407H78.6758ZM77.9936 32.5981L80.124 27.9888H80.2624L80.3809 32.5981H77.9936Z" fill="white"/>
<path d="M89.7932 25.2407H86.2383L83.4893 37.8835H87.866C93.3758 37.8835 95.1821 33.7746 95.2105 30.2627C95.2368 27.0054 93.0974 25.2407 89.7932 25.2407ZM87.308 35.2144L88.8808 27.9097H89.6679C91.1902 27.9097 92.057 28.7526 92.044 30.3593C92.0251 32.7035 90.8457 35.2144 88.32 35.2144H87.308Z" fill="white"/>
<path d="M97.0356 25.2407L94.2867 37.8835H103.715L104.272 35.3022H98.0615L98.6092 32.8088H103.834L104.391 30.2276H99.175L99.6961 27.822H105.785L106.343 25.2407H97.0356Z" fill="white"/>
<path d="M65.5149 10.6074L64.9309 13.3116H68.5118L66.3469 23.2502H69.5992L71.764 13.3116H75.345L75.929 10.6074H65.5149Z" fill="white"/>
<path d="M81.4415 10.6074H76.3296L73.5807 23.2502H76.7637L77.8418 18.2809H78.0148L80.5782 23.2502H83.8045L83.8585 22.9868L81.2756 18.2984C84.4261 18.035 85.5912 16.2176 85.609 14.0139C85.6266 11.8366 84.0191 10.6074 81.4415 10.6074ZM78.3449 15.963L78.9555 13.1886H80.9882C81.9742 13.1886 82.5333 13.5837 82.527 14.3563C82.5205 15.1641 81.9432 15.963 80.5073 15.963H78.3449Z" fill="white"/>
<path d="M89.4451 10.6074L83.2471 22.9868L83.1931 23.2502H86.3155L87.5305 20.6163H91.2238L91.2977 23.2502H94.2905L94.3445 22.9868L93.5277 10.6074H89.4451ZM88.7628 17.9648L90.8933 13.3555H91.0317L91.1501 17.9648H88.7628Z" fill="white"/>
<path d="M100.562 10.6074H97.0075L94.2586 23.2502H98.6352C104.145 23.2502 105.951 19.1413 105.98 15.6294C106.006 12.3721 103.867 10.6074 100.562 10.6074ZM98.0773 20.5811L99.65 13.2764H100.437C101.959 13.2764 102.826 14.1193 102.813 15.726C102.794 18.0702 101.615 20.5811 99.0893 20.5811H98.0773Z" fill="white"/>
<path d="M107.805 10.6074L105.056 23.2502H114.484L115.041 20.6689H108.831L109.378 18.1755H114.603L115.16 15.5943H109.944L110.465 13.1886H116.555L117.112 10.6074H107.805Z" fill="white"/>
<path d="M30.5881 37.9176L10.0005 2.37646L20.2266 10.5829L33.2982 33.2235L30.5881 37.9176Z" fill="#5E47FF"/>
<path d="M49.9138 16.4L29.428 52L31.4219 39.0407L44.4935 16.4L49.9138 16.4Z" fill="#5E47FF"/>
<path d="M21.7354 10.647L62.8088 10.5881L50.5888 15.3411L24.4456 15.3411L21.7354 10.647Z" fill="#5E47FF"/>
<path d="M30.5881 37.9176L10.0005 2.37646L20.2266 10.5829L33.2982 33.2235L30.5881 37.9176Z" fill="#5E47FF"/>
<path d="M49.9138 16.4L29.428 52L31.4219 39.0407L44.4935 16.4L49.9138 16.4Z" fill="#5E47FF"/>
<g filter="url(#filter0_f_185_233)">
<path d="M21.7354 10.647L62.8088 10.5881L50.5888 15.3411L24.4456 15.3411L21.7354 10.647Z" fill="#5E47FF"/>
</g>
<path d="M34.0366 30.541L41.7799 17.1293H26.2933L34.0366 30.541Z" fill="#57E1FF"/>
<g filter="url(#filter1_f_185_233)">
<path d="M30.5881 37.9176L10.0005 2.37646L20.2266 10.5829L33.2982 33.2235L30.5881 37.9176Z" fill="#5E47FF"/>
</g>
<g filter="url(#filter2_f_185_233)">
<path d="M49.9138 16.4L29.428 52L31.4219 39.0407L44.4935 16.4L49.9138 16.4Z" fill="#5E47FF"/>
</g>
<path d="M21.7354 10.647L62.8088 10.5881L50.5888 15.3411L24.4456 15.3411L21.7354 10.647Z" fill="#5E47FF"/>
<defs>
<filter id="filter0_f_185_233" x="1.73544" y="-9.41187" width="81.0733" height="44.7529" filterUnits="userSpaceOnUse" color-interpolation-filters="sRGB">
<feFlood flood-opacity="0" result="BackgroundImageFix"/>
<feBlend mode="normal" in="SourceGraphic" in2="BackgroundImageFix" result="shape"/>
<feGaussianBlur stdDeviation="10" result="effect1_foregroundBlur_185_233"/>
</filter>
<filter id="filter1_f_185_233" x="-9.99954" y="-17.6235" width="63.2978" height="75.5413" filterUnits="userSpaceOnUse" color-interpolation-filters="sRGB">
<feFlood flood-opacity="0" result="BackgroundImageFix"/>
<feBlend mode="normal" in="SourceGraphic" in2="BackgroundImageFix" result="shape"/>
<feGaussianBlur stdDeviation="10" result="effect1_foregroundBlur_185_233"/>
</filter>
<filter id="filter2_f_185_233" x="9.42804" y="-3.59985" width="60.4857" height="75.5999" filterUnits="userSpaceOnUse" color-interpolation-filters="sRGB">
<feFlood flood-opacity="0" result="BackgroundImageFix"/>
<feBlend mode="normal" in="SourceGraphic" in2="BackgroundImageFix" result="shape"/>
<feGaussianBlur stdDeviation="10" result="effect1_foregroundBlur_185_233"/>
</filter>
</defs>
</svg>
